<?xml version="1.0" encoding="UTF-8" standalone="no"?>
<!DOCTYPE svg PUBLIC "-//W3C//DTD SVG 1.1//EN" "http://www.w3.org/Graphics/SVG/1.1/DTD/svg11.dtd">
<svg width="100%" height="100%" viewBox="0 0 1450 550" version="1.1" xmlns="http://www.w3.org/2000/svg" xmlns:xlink="http://www.w3.org/1999/xlink" xml:space="preserve" xmlns:serif="http://www.serif.com/" style="fill-rule:evenodd;clip-rule:evenodd;">
    <g transform="matrix(1,0,0,1,5,5.68434e-14)">
        <g id="Layer_1">
            <g>
                <g transform="matrix(1,0,0,1,931.067,371.312)">
                    <g transform="matrix(1,0,0,1,-750.944,101.705)">
                        <path d="M145.459,-5.127C126.123,0.732 109.57,3.662 95.801,3.662C72.363,3.662 53.247,-4.126 38.452,-19.702C23.657,-35.278 16.26,-55.469 16.26,-80.273C16.26,-104.395 22.778,-124.17 35.815,-139.6C48.853,-155.029 65.527,-162.744 85.84,-162.744C105.078,-162.744 119.946,-155.908 130.444,-142.236C140.942,-128.564 146.191,-109.131 146.191,-83.936L146.045,-75L45.703,-75C49.902,-37.207 68.408,-18.311 101.221,-18.311C113.232,-18.311 127.979,-21.533 145.459,-27.979L145.459,-5.127ZM47.021,-96.68L117.188,-96.68C117.188,-126.27 106.152,-141.064 84.082,-141.064C61.914,-141.064 49.561,-126.27 47.021,-96.68Z" style="fill:white;fill-rule:nonzero;"/>
                    </g>
                    <g transform="matrix(1,0,0,1,-604.044,101.705)">
                        <rect x="28.857" y="-231.299" width="28.857" height="231.299" style="fill:white;fill-rule:nonzero;"/>
                    </g>
                    <g transform="matrix(1,0,0,1,-546.244,101.705)">
                        <rect x="28.857" y="-159.082" width="28.857" height="159.082" style="fill:white;fill-rule:nonzero;"/>
                    </g>
                    <g transform="matrix(1,0,0,1,-486.444,101.705)">
                        <path d="M29.443,52.881L32.813,27.832C49.512,35.742 65.967,39.697 82.178,39.697C114.697,39.697 130.957,22.461 130.957,-12.012L130.957,-37.061C120.313,-14.795 102.832,-3.662 78.516,-3.662C59.473,-3.662 44.336,-10.596 33.105,-24.463C21.875,-38.33 16.26,-57.031 16.26,-80.566C16.26,-104.785 22.656,-124.512 35.449,-139.746C48.242,-154.98 64.795,-162.598 85.107,-162.598C102.881,-162.598 118.164,-155.371 130.957,-140.918L130.957,-159.082L159.961,-159.082L159.961,-43.359C159.961,-18.457 158.667,-0.024 156.079,11.938C153.491,23.901 148.633,33.691 141.504,41.309C128.906,54.688 109.326,61.377 82.764,61.377C64.209,61.377 46.436,58.545 29.443,52.881ZM130.957,-55.078L130.957,-121.143C118.262,-134.326 104.443,-140.918 89.502,-140.918C76.221,-140.918 65.82,-135.596 58.301,-124.951C50.781,-114.307 47.021,-99.707 47.021,-81.152C47.021,-46.289 59.277,-28.857 83.789,-28.857C100.488,-28.857 116.211,-37.598 130.957,-55.078Z" style="fill:white;fill-rule:nonzero;"/>
                    </g>
                    <g transform="matrix(1,0,0,1,-328.344,101.705)">
                        <path d="M28.857,0L28.857,-231.299L57.715,-231.299L57.715,-129.199C72.949,-151.465 91.602,-162.598 113.672,-162.598C127.441,-162.598 138.428,-158.228 146.631,-149.487C154.834,-140.747 158.936,-129.004 158.936,-114.258L158.936,0L130.078,0L130.078,-104.883C130.078,-116.699 128.345,-125.122 124.878,-130.151C121.411,-135.181 115.674,-137.695 107.666,-137.695C89.99,-137.695 73.34,-126.123 57.715,-102.979L57.715,0L28.857,0Z" style="fill:white;fill-rule:nonzero;"/>
                    </g>
                    <g transform="matrix(1,0,0,1,-162.444,101.705)">
                        <path d="M76.611,3.662C61.963,3.662 50.537,-0.537 42.334,-8.936C34.131,-17.334 30.029,-29.004 30.029,-43.945L30.029,-137.402L10.107,-137.402L10.107,-159.082L30.029,-159.082L30.029,-187.939L58.887,-190.723L58.887,-159.082L100.488,-159.082L100.488,-137.402L58.887,-137.402L58.887,-49.219C58.887,-28.418 67.871,-18.018 85.84,-18.018C89.648,-18.018 94.287,-18.652 99.756,-19.922L99.756,0C90.869,2.441 83.154,3.662 76.611,3.662Z" style="fill:white;fill-rule:nonzero;"/>
                    </g>
                    <g transform="matrix(1,0,0,1,-53.844,101.705)">
                        <path d="M63.281,-137.402L63.281,0L34.277,0L34.277,-137.402L11.719,-137.402L11.719,-159.082L34.277,-159.082L34.277,-178.125C34.277,-216.016 51.563,-234.961 86.133,-234.961C95.801,-234.961 106.787,-233.35 119.092,-230.127L119.092,-207.275C106.104,-211.279 95.703,-213.281 87.891,-213.281C78.418,-213.281 71.948,-211.011 68.481,-206.47C65.015,-201.929 63.281,-193.506 63.281,-181.201L63.281,-159.082L102.979,-159.082L102.979,-137.402L63.281,-137.402Z" style="fill:white;fill-rule:nonzero;"/>
                    </g>
                    <g transform="matrix(1,0,0,1,32.956,101.705)">
                        <path d="M128.32,0L128.32,-29.883C112.988,-7.52 94.385,3.662 72.51,3.662C58.643,3.662 47.607,-0.708 39.404,-9.448C31.201,-18.188 27.1,-29.98 27.1,-44.824L27.1,-159.082L55.957,-159.082L55.957,-54.199C55.957,-42.285 57.69,-33.813 61.157,-28.784C64.624,-23.755 70.41,-21.24 78.516,-21.24C96.094,-21.24 112.695,-32.813 128.32,-55.957L128.32,-159.082L157.178,-159.082L157.178,0L128.32,0Z" style="fill:white;fill-rule:nonzero;"/>
                    </g>
                    <g transform="matrix(1,0,0,1,189.656,101.705)">
                        <rect x="28.857" y="-231.299" width="28.857" height="231.299" style="fill:white;fill-rule:nonzero;"/>
                    </g>
                    <g transform="matrix(1,0,0,1,253.456,101.705)">
                        <path d="M26.221,-216.797L56.982,-216.797L56.982,-79.98C56.982,-58.203 61.011,-42.358 69.067,-32.446C77.124,-22.534 89.941,-17.578 107.52,-17.578C124.707,-17.578 136.89,-22.241 144.067,-31.567C151.245,-40.894 154.834,-56.689 154.834,-78.955L154.834,-216.797L181.787,-216.797L181.787,-79.395C181.787,-49.805 175.708,-28.271 163.55,-14.795C151.392,-1.318 132.031,5.42 105.469,5.42C78.418,5.42 58.447,-1.563 45.557,-15.527C32.666,-29.492 26.221,-51.074 26.221,-80.273L26.221,-216.797Z" style="fill:rgb(148,255,71);fill-rule:nonzero;"/>
                    </g>
                    <g transform="matrix(1,0,0,1,436.356,101.705)">
                        <rect x="27.832" y="-216.797" width="30.762" height="216.797" style="fill:rgb(148,255,71);fill-rule:nonzero;"/>
                    </g>
                </g>
                <g transform="matrix(1,0,0,1,-18.9328,4.60652)">
                    <path d="M82.822,111.572L178.822,111.572L178.822,463.49C178.822,463.49 133.89,473.003 87.657,464.039C21.391,450.122 13.001,329.996 106.822,323.654C107.25,311.654 106.822,159.572 106.822,159.572L82.822,159.572L82.822,111.572ZM178.822,159.306L106.822,159.572" style="fill-opacity:0;fill-rule:nonzero;stroke:white;stroke-width:13px;"/>
                </g>
                <g transform="matrix(1,0,0,1,-28.4118,-0.460477)">
                    <path d="M456.002,285.067C448.006,285.067 441.525,278.647 441.525,270.726C441.525,262.806 448.006,256.385 456.002,256.385C463.997,256.385 470.479,262.806 470.479,270.726C470.479,278.647 463.997,285.067 456.002,285.067Z" style="fill:rgb(148,255,71);fill-opacity:0;fill-rule:nonzero;stroke:rgb(148,255,71);stroke-width:6px;"/>
                </g>
                <g transform="matrix(1,0,0,1,-18.9328,4.60652)">
                    <path d="M148.491,39.682C153.184,39.682 157.355,37.47 160,34.042C161.862,31.629 162.968,28.613 162.968,25.341C162.968,17.421 156.487,11 148.491,11C140.496,11 134.014,17.421 134.014,25.341C134.014,33.261 140.496,39.682 148.491,39.682Z" style="fill:rgb(148,255,71);fill-opacity:0;fill-rule:nonzero;stroke:rgb(148,255,71);stroke-width:6px;"/>
                </g>
                <g transform="matrix(1,0,0,1,-18.9328,4.60652)">
                    <path d="M171.818,457.588C171.517,454.61 172.605,374.983 171.764,375.152C159.672,391.366 146.544,375.047 146.544,375.047C146.544,375.047 132.824,355.978 121.044,375.016C111.237,390.868 95.544,375.016 95.544,375.016C95.544,375.016 81.073,356.805 70.044,375.016C61.228,389.574 45.513,374.928 45.513,374.939C40.414,390.014 39.351,443.136 85.783,456.512C116.696,463.747 149.844,460.984 171.818,457.588ZM133.556,435.232C127.348,435.232 122.316,430.252 122.316,424.108C122.316,417.965 127.348,412.984 133.556,412.984C139.764,412.984 144.796,417.965 144.796,424.108C144.796,430.252 139.764,435.232 133.556,435.232ZM84.056,421.949C93.716,421.949 101.533,414.178 101.533,404.608C101.533,395.039 93.716,387.267 84.056,387.267C74.396,387.267 66.579,395.039 66.579,404.608C66.579,414.178 74.396,421.949 84.056,421.949Z" style="fill:rgb(148,255,71);"/>
                </g>
                <g transform="matrix(1,0,0,1,-18.9328,4.60652)">
                    <path d="M84.056,415.949C77.726,415.949 72.579,410.88 72.579,404.608C72.579,398.337 77.726,393.267 84.056,393.267C90.386,393.267 95.533,398.337 95.533,404.608C95.533,410.88 90.386,415.949 84.056,415.949Z" style="fill:rgb(148,255,71);"/>
                </g>
                <g transform="matrix(1,0,0,1,-18.9328,4.60652)">
                    <path d="M137.491,276.729C145.487,276.729 151.968,270.309 151.968,262.388C151.968,254.468 145.487,248.047 137.491,248.047C129.496,248.047 123.014,254.468 123.014,262.388C123.014,270.309 129.496,276.729 137.491,276.729Z" style="fill:rgb(148,255,71);fill-opacity:0;fill-rule:nonzero;stroke:rgb(148,255,71);stroke-width:6px;"/>
                </g>
                <g transform="matrix(1,0,0,1,-18.9328,4.60652)">
                    <path d="M147.991,210.304C154.199,210.304 159.231,205.323 159.231,199.18C159.231,193.036 154.199,188.056 147.991,188.056C141.784,188.056 136.751,193.036 136.751,199.18C136.751,205.323 141.784,210.304 147.991,210.304Z" style="fill:rgb(148,255,71);fill-rule:nonzero;"/>
                </g>
                <g transform="matrix(1,0,0,1,-18.9328,4.60652)">
                    <path d="M147.991,339.061C154.199,339.061 159.231,334.081 159.231,327.937C159.231,321.793 154.199,316.813 147.991,316.813C141.784,316.813 136.751,321.793 136.751,327.937C136.751,334.081 141.784,339.061 147.991,339.061Z" style="fill:rgb(148,255,71);fill-rule:nonzero;"/>
                </g>
                <g transform="matrix(1,0,0,1,-18.9328,4.60652)">
                    <path d="M136.991,87.711C143.199,87.711 148.231,82.73 148.231,76.587C148.231,70.443 143.199,65.463 136.991,65.463C130.784,65.463 125.751,70.443 125.751,76.587C125.751,82.73 130.784,87.711 136.991,87.711Z" style="fill:rgb(148,255,71);fill-rule:nonzero;"/>
                </g>
            </g>
        </g>
    </g>
</svg>
